<svg  viewBox="0 0 17 20" fill="none" xmlns="http://www.w3.org/2000/svg">
<path d="M8.05505 20C9.15505 20 10.0551 19.1 10.0551 18H6.05505C6.05505 19.1 6.95505 20 8.05505 20ZM14.0551 14V9C14.0551 5.93 12.4251 3.36 9.55505 2.68V2C9.55505 1.17 8.88505 0.5 8.05505 0.5C7.22505 0.5 6.55505 1.17 6.55505 2V2.68C3.69505 3.36 2.05505 5.92 2.05505 9V14L0.0550537 16V17H16.0551V16L14.0551 14ZM12.0551 15H4.05505V9C4.05505 6.52 5.56505 4.5 8.05505 4.5C10.5451 4.5 12.0551 6.52 12.0551 9V15Z" fill="currentColor"/>
</svg>
