<svg width="10" height="7" viewBox="0 0 10 7" fill="none" xmlns="http://www.w3.org/2000/svg">
<g clip-path="url(#clip0_2_1223)">
<path d="M5.00003 6.49979C4.73484 6.49973 4.48052 6.39434 4.29303 6.20679L0.293031 2.20679C0.105559 2.01926 0.000244141 1.76495 0.000244141 1.49979C0.000244141 1.23462 0.105559 0.980314 0.293031 0.792786C0.480558 0.605315 0.734866 0.5 1.00003 0.5C1.26519 0.5 1.5195 0.605315 1.70703 0.792786L5.70703 4.79279C5.84684 4.93264 5.94205 5.1108 5.98061 5.30475C6.01918 5.49871 5.99938 5.69974 5.92371 5.88244C5.84804 6.06514 5.7199 6.2213 5.55549 6.33119C5.39108 6.44107 5.19778 6.49974 5.00003 6.49979Z" fill="#63D391"/>
<path d="M5.00003 6.49979C4.73484 6.49973 4.48052 6.39434 4.29303 6.20679C4.10556 6.01926 4.00024 5.76495 4.00024 5.49979C4.00024 5.23462 4.10556 4.98031 4.29303 4.79279L8.29303 0.792786C8.48056 0.605315 8.73487 0.5 9.00003 0.5C9.26519 0.5 9.5195 0.605315 9.70703 0.792786C9.8945 0.980314 9.99982 1.23462 9.99982 1.49979C9.99982 1.76495 9.8945 2.01926 9.70703 2.20679L5.70703 6.20679C5.51954 6.39434 5.26523 6.49973 5.00003 6.49979Z" fill="#63D391"/>
</g>
<defs>
<clipPath id="clip0_2_1223">
<rect width="10" height="6" fill="white" transform="translate(0 0.5)"/>
</clipPath>
</defs>
</svg>
