<svg width="17" height="16" viewBox="0 0 17 16" fill="none" xmlns="http://www.w3.org/2000/svg">
<path d="M8.05505 2C9.15505 2 10.0551 2.9 10.0551 4C10.0551 5.1 9.15505 6 8.05505 6C6.95505 6 6.05505 5.1 6.05505 4C6.05505 2.9 6.95505 2 8.05505 2ZM8.05505 11C10.7551 11 13.8551 12.29 14.0551 13V14H2.05505V13.01C2.25505 12.29 5.35505 11 8.05505 11ZM8.05505 0C5.84505 0 4.05505 1.79 4.05505 4C4.05505 6.21 5.84505 8 8.05505 8C10.2651 8 12.0551 6.21 12.0551 4C12.0551 1.79 10.2651 0 8.05505 0ZM8.05505 9C5.38505 9 0.0550537 10.34 0.0550537 13V16H16.0551V13C16.0551 10.34 10.7251 9 8.05505 9Z" fill="#205266"/>
</svg>
