<svg viewBox="0 0 17 17" fill="none" xmlns="http://www.w3.org/2000/svg">
<path d="M14.5 7.83334C14.3232 7.83334 14.1536 7.90358 14.0286 8.02861C13.9036 8.15363 13.8333 8.3232 13.8333 8.50001C13.8413 9.7487 13.4135 10.9611 12.6238 11.9283C11.834 12.8956 10.7317 13.5571 9.50664 13.7991C8.28159 14.041 7.01052 13.8482 5.91233 13.2539C4.81415 12.6595 3.9576 11.7008 3.49021 10.5428C3.02282 9.3849 2.97386 8.10022 3.35174 6.91006C3.72963 5.7199 4.51071 4.69877 5.56046 4.02253C6.61022 3.34629 7.86293 3.05729 9.10284 3.20528C10.3427 3.35328 11.4922 3.92902 12.3533 4.83334H10.7533C10.5765 4.83334 10.407 4.90358 10.2819 5.02861C10.1569 5.15363 10.0867 5.3232 10.0867 5.50001C10.0867 5.67682 10.1569 5.84639 10.2819 5.97141C10.407 6.09644 10.5765 6.16668 10.7533 6.16668H13.7733C13.9501 6.16668 14.1197 6.09644 14.2447 5.97141C14.3698 5.84639 14.44 5.67682 14.44 5.50001V2.50001C14.44 2.3232 14.3698 2.15363 14.2447 2.02861C14.1197 1.90358 13.9501 1.83334 13.7733 1.83334C13.5965 1.83334 13.427 1.90358 13.3019 2.02861C13.1769 2.15363 13.1067 2.3232 13.1067 2.50001V3.68001C11.9964 2.61872 10.5538 1.97331 9.02267 1.8529C7.49152 1.73248 5.96575 2.14444 4.70328 3.01914C3.4408 3.89383 2.51907 5.17761 2.09388 6.65347C1.6687 8.12933 1.76614 9.70673 2.36974 11.119C2.97333 12.5313 4.04607 13.6919 5.40659 14.4046C6.76713 15.1172 8.332 15.3383 9.83669 15.0303C11.3414 14.7224 12.6936 13.9043 13.6648 12.7145C14.6359 11.5246 15.1664 10.0359 15.1667 8.50001C15.1667 8.3232 15.0964 8.15363 14.9714 8.02861C14.8464 7.90358 14.6768 7.83334 14.5 7.83334Z" fill="currentColor"/>
</svg>
